# xmcd
#
# Track frame offsets: 
#        150
#        3426
#        19669
#        37936
#        56195
#        74977
#        98367
#        118334
#        130996
#        152686
#        170210
#        185313
#        204823
#        232093
#        248652
#        270063
#        287493
#
# Disc length: 4445 seconds
#
# Revision: 6
# Processed by: cddbd v1.5.2PL0 Copyright (c) Steve Scherf et al.
# Submitted via: ExactAudioCopyFreeDBPlugin 1.0
#
DISCID=e6115b11
DTITLE=SFDK - 2005
DYEAR=2005
DGENRE=Hip-Hop
TTITLE0=Intro
TTITLE1=2005
TTITLE2=Diana Fácil
TTITLE3=Bailes de Salón (colabora Juaninacka)
TTITLE4=¿Yo qué hago aquí? (colabora Jefe de la M)
TTITLE5=$ and € (con ToteKing)
TTITLE6=La habitación que más me gusta de mi keli
TTITLE7=Interludio
TTITLE8=El niño güei
TTITLE9=En la oscuridad (con Legendario [Dogma Crew])
TTITLE10=Ojos tristes
TTITLE11=No eres feo ni ná
TTITLE12=Esta canción va dedicada... (con Morodo)
TTITLE13=Abuchea!!
TTITLE14=Fumar cagando
TTITLE15=Hoy no... (con Loko [H Mafia])
TTITLE16=Crossover
EXTD=
EXTT0=
EXTT1=
EXTT2=
EXTT3=
EXTT4=
EXTT5=
EXTT6=
EXTT7=
EXTT8=
EXTT9=
EXTT10=
EXTT11=
EXTT12=
EXTT13=
EXTT14=
EXTT15=
EXTT16=
PLAYORDER=
